<svg width="48" height="48" viewBox="0 0 48 48" fill="none" xmlns="http://www.w3.org/2000/svg">
<path d="M19.7761 20.136C18.4081 20.136 17.3281 21.336 17.3281 22.8C17.3281 24.264 18.4321 25.464 19.7761 25.464C21.1441 25.464 22.2241 24.264 22.2241 22.8C22.2481 21.336 21.1441 20.136 19.7761 20.136ZM28.5361 20.136C27.1681 20.136 26.0881 21.336 26.0881 22.8C26.0881 24.264 27.1921 25.464 28.5361 25.464C29.9041 25.464 30.9841 24.264 30.9841 22.8C30.9841 21.336 29.9041 20.136 28.5361 20.136Z" fill="white"/>
<path d="M40.2001 0H8.04012C5.32812 0 3.12012 2.208 3.12012 4.944V37.392C3.12012 40.128 5.32812 42.336 8.04012 42.336H35.2561L33.9841 37.896L37.0561 40.752L39.9601 43.44L45.1201 48V4.944C45.1201 2.208 42.9121 0 40.2001 0ZM30.9361 31.344C30.9361 31.344 30.0721 30.312 29.3521 29.4C32.4961 28.512 33.6961 26.544 33.6961 26.544C32.7121 27.192 31.7761 27.648 30.9361 27.96C29.7361 28.464 28.5841 28.8 27.4561 28.992C25.1521 29.424 23.0401 29.304 21.2401 28.968C19.8721 28.704 18.6961 28.32 17.7121 27.936C17.1601 27.72 16.5601 27.456 15.9601 27.12C15.8881 27.072 15.8161 27.048 15.7441 27C15.6961 26.976 15.6721 26.952 15.6481 26.928C15.2161 26.688 14.9761 26.52 14.9761 26.52C14.9761 26.52 16.1281 28.44 19.1761 29.352C18.4561 30.264 17.5681 31.344 17.5681 31.344C12.2641 31.176 10.2481 27.696 10.2481 27.696C10.2481 19.968 13.7041 13.704 13.7041 13.704C17.1601 11.112 20.4481 11.184 20.4481 11.184L20.6881 11.472C16.3681 12.72 14.3761 14.616 14.3761 14.616C14.3761 14.616 14.9041 14.328 15.7921 13.92C18.3601 12.792 20.4001 12.48 21.2401 12.408C21.3841 12.384 21.5041 12.36 21.6481 12.36C23.1121 12.168 24.7681 12.12 26.4961 12.312C28.7761 12.576 31.2241 13.248 33.7201 14.616C33.7201 14.616 31.8241 12.816 27.7441 11.568L28.0801 11.184C28.0801 11.184 31.3681 11.112 34.8241 13.704C34.8241 13.704 38.2801 19.968 38.2801 27.696C38.2801 27.696 36.2401 31.176 30.9361 31.344V31.344Z" fill="white"/>
</svg>
